<svg width="15" height="11" viewBox="0 0 17 13" fill="none" xmlns="http://www.w3.org/2000/svg">
<path d="M12.2959 7.15368L7.87753 12.565C7.85928 12.589 7.84004 12.6122 7.81989 12.6346C7.61235 12.8732 7.36532 12.9787 7.12274 12.987C6.88055 13.0032 6.62417 12.923 6.39369 12.7065C6.3714 12.6862 6.34993 12.665 6.32936 12.643L3.53602 9.84968C2.59321 8.90688 4.00742 7.49268 4.95023 8.43548C5.89304 9.37828 4.47883 10.7925 3.53602 9.84968L0.707589 7.02128C-0.23522 6.07838 1.179 4.66421 2.12181 5.60698L4.95023 8.43548L6.99653 10.4818L10.7467 5.88878C11.59 4.85599 13.1391 6.12088 12.2959 7.15368L10.7467 5.88878L12.2959 7.15368ZM3.53602 9.84968L4.95023 8.43548L3.53602 9.84968ZM10.7467 5.88878L15.1964 0.439034C16.0397 -0.593756 17.5889 0.671164 16.7456 1.70395L12.2959 7.15368C11.4526 8.18648 9.90343 6.92158 10.7467 5.88878Z" fill="#0A50D1"/>
</svg>
